<svg width="251" height="480" viewBox="0 0 251 480" fill="none" xmlns="http://www.w3.org/2000/svg">
<g clip-path="url(#clip0_5_87)">
<path d="M73.68 153.48C40.65 166.19 15.59 197.63 10.58 232.67C9.53 239.99 8.91 248.23 3.36 253.12C1.8 254.49 -0.300002 255.99 0.0399985 258.05C0.559998 261.26 5.41 260.47 8.22 258.84C6.99 262.46 6.85 266.44 7.81 270.14C10.64 269.67 13.25 267.99 14.85 265.6C17.37 268.78 22.21 272.09 24.85 269.01C26.34 267.27 25.77 264.59 26.55 262.43C27.64 259.36 31.08 257.97 34.07 256.66C49.07 250.07 60.7 237.2 68.24 222.65C75.78 208.1 79.55 191.9 82.07 175.71C82.79 171.07 83.4 166.23 81.95 161.77C80.5 157.31 76.19 152.53 73.69 153.49L73.68 153.48Z" fill="#F9E4D2"/>
<path d="M228.07 246.64C209.9 250.17 191.05 240.18 179.82 225.46C168.6 210.75 163.86 192.09 161.53 173.73C161.14 170.66 160.98 167.11 163.21 164.97C166.11 162.21 170.87 163.72 174.4 165.62C195.41 176.92 211.15 196.15 223.09 216.8C225.92 221.69 228.92 227.01 234.09 229.27C236.95 230.52 240.17 230.68 243.09 231.78C246.01 232.88 248.81 235.5 248.45 238.6C246.32 239.17 244.18 239.73 242.05 240.3C246.92 244.54 250.11 250.66 250.81 257.08C246.21 257.9 241.23 255.22 239.37 250.94C235.52 252.08 236.69 259.87 232.68 260.1C230.15 260.24 229.04 256.91 229.23 254.38C229.42 251.85 229.89 248.83 228.07 246.64Z" fill="#F9E4D2"/>
<path d="M95.27 151.36C84.46 152.27 75.11 159.89 69.45 169.15C63.79 178.41 61.26 189.19 59.1 199.82C53.7 226.28 50 253.08 48.04 280.01C47.12 292.62 46.65 305.69 51.19 317.49C56.31 330.8 67.19 340.93 77.88 350.37C90.58 361.57 104.68 373.01 121.54 374.58C140.12 376.3 157.51 365.58 171.86 353.65C186.57 341.41 200.49 326.16 203.49 307.26C205.31 295.78 202.91 284.1 200.43 272.75C193.7 241.87 186.39 211.11 178.51 180.5C177.35 175.98 176.1 171.32 173.17 167.69C169.47 163.11 163.66 160.86 158.05 159.09C137.08 152.46 114.87 149.72 95.27 151.37V151.36Z" fill="#F9E4D2"/>
<mask id="mask0_5_87" style="mask-type:luminance" maskUnits="userSpaceOnUse" x="47" y="150" width="158" height="225">
<path d="M95.27 151.36C84.46 152.27 75.11 159.89 69.45 169.15C63.79 178.41 61.26 189.19 59.1 199.82C53.7 226.28 50 253.08 48.04 280.01C47.12 292.62 46.65 305.69 51.19 317.49C56.31 330.8 67.19 340.93 77.88 350.37C90.58 361.57 104.68 373.01 121.54 374.58C140.12 376.3 157.51 365.58 171.86 353.65C186.57 341.41 200.49 326.16 203.49 307.26C205.31 295.78 202.91 284.1 200.43 272.75C193.7 241.87 186.39 211.11 178.51 180.5C177.35 175.98 176.1 171.32 173.17 167.69C169.47 163.11 163.66 160.86 158.05 159.09C137.08 152.46 114.87 149.72 95.27 151.37V151.36Z" fill="white"/>
</mask>
<g mask="url(#mask0_5_87)">
<g style="mix-blend-mode:overlay">
<path d="M135.54 178.88C113.03 173.83 87.18 170.29 66.97 158.43C29.17 95.81 298.23 139 135.54 178.88Z" fill="black"/>
</g>
</g>
<path fill-rule="evenodd" clip-rule="evenodd" d="M83.849 198.695C84.2329 198.298 84.2224 197.665 83.8255 197.281C83.4285 196.897 82.7954 196.908 82.4114 197.305C82.2102 197.513 81.9673 197.75 81.7025 198.009L81.7025 198.009C81.3389 198.365 80.934 198.76 80.5392 199.176C79.8777 198.615 79.1812 198.108 78.4623 197.733C77.9725 197.478 77.3686 197.668 77.1134 198.158C76.8581 198.648 77.0483 199.252 77.538 199.507C78.0968 199.798 78.6693 200.212 79.2523 200.707C78.5983 201.627 78.0664 202.709 78.0306 203.92C78.0143 204.473 78.4486 204.933 79.0007 204.95C79.5527 204.966 80.0135 204.532 80.0298 203.98C80.0477 203.374 80.2983 202.746 80.7306 202.088C81.1133 202.471 81.4906 202.864 81.8649 203.253L81.8815 203.271L81.8815 203.271C82.3459 203.754 82.809 204.236 83.2534 204.667C83.6496 205.052 84.2827 205.043 84.6675 204.647C85.0523 204.251 85.0431 203.617 84.6469 203.233C84.2273 202.825 83.7843 202.364 83.3092 201.87L83.3092 201.87L83.307 201.867C82.892 201.436 82.4548 200.981 82.005 200.534C82.3316 200.192 82.6655 199.866 82.9961 199.543L82.9961 199.543C83.2854 199.261 83.5721 198.982 83.849 198.695Z" fill="#F9BCAC"/>
<path fill-rule="evenodd" clip-rule="evenodd" d="M156.469 195.04C155.939 194.886 155.384 195.191 155.23 195.721C155.076 196.252 155.381 196.807 155.911 196.961C156.279 197.067 156.645 197.322 157.026 197.711C156.202 198.711 155.512 199.837 155.065 201.016C154.869 201.532 155.129 202.109 155.646 202.305C156.162 202.501 156.739 202.241 156.935 201.725C157.247 200.902 157.716 200.093 158.284 199.344C158.418 199.547 158.549 199.749 158.683 199.955L158.683 199.955L158.683 199.955C158.818 200.163 158.955 200.375 159.099 200.592C159.456 201.129 159.845 201.681 160.269 202.123C160.651 202.521 161.284 202.534 161.683 202.152C162.081 201.769 162.094 201.136 161.712 200.738C161.421 200.434 161.114 200.011 160.765 199.486C160.647 199.308 160.521 199.114 160.39 198.912L160.39 198.912C160.158 198.554 159.91 198.172 159.666 197.819C159.993 197.514 160.334 197.232 160.682 196.976C161.127 196.65 161.223 196.024 160.896 195.579C160.57 195.133 159.944 195.037 159.498 195.364C159.127 195.637 158.76 195.937 158.405 196.261C157.859 195.717 157.221 195.258 156.469 195.04Z" fill="#F9BCAC"/>
<path d="M46.98 266.87L44.06 286.89C43.77 288.87 43.5 290.97 44.29 292.81C45.6 295.84 49.19 296.98 52.28 298.12C67.58 303.71 79.7 317.29 83.53 333.13C86.49 345.39 85.27 359.77 94.05 368.83C100.93 375.94 111.75 377.2 121.64 377.48C131.75 377.77 141.9 377.46 151.89 375.92C155.91 375.3 160.01 374.43 163.4 372.2C171.88 366.61 173.1 354.98 174.97 345C178.03 328.73 185.06 313.22 195.27 300.19C198.73 295.78 202.63 291.49 204.33 286.16C205.24 283.31 205.47 280.29 205.54 277.3C205.79 266.55 203.97 255.76 200.22 245.68C158.69 270.32 106.94 277.09 60.47 263.95C57.37 263.07 54.15 262.1 50.97 262.64C47.79 263.18 44.69 265.79 46.96 266.86L46.98 266.87Z" fill="#C7F1FF"/>
<mask id="mask1_5_87" style="mask-type:luminance" maskUnits="userSpaceOnUse" x="43" y="245" width="163" height="133">
<path d="M46.98 266.87L44.06 286.89C43.77 288.87 43.5 290.97 44.29 292.81C45.6 295.84 49.19 296.98 52.28 298.12C67.58 303.71 79.7 317.29 83.53 333.13C86.49 345.39 85.27 359.77 94.05 368.83C100.93 375.94 111.75 377.2 121.64 377.48C131.75 377.77 141.9 377.46 151.89 375.92C155.91 375.3 160.01 374.43 163.4 372.2C171.88 366.61 173.1 354.98 174.97 345C178.03 328.73 185.06 313.22 195.27 300.19C198.73 295.78 202.63 291.49 204.33 286.16C205.24 283.31 205.47 280.29 205.54 277.3C205.79 266.55 203.97 255.76 200.22 245.68C158.69 270.32 106.94 277.09 60.47 263.95C57.37 263.07 54.15 262.1 50.97 262.64C47.79 263.18 44.69 265.79 46.96 266.86L46.98 266.87Z" fill="white"/>
</mask>
<g mask="url(#mask1_5_87)">
<g style="mix-blend-mode:overlay" opacity="0.7">
<path d="M145.89 397.9C151.12 397.39 158.12 392.29 162.77 389.67C168.97 386.18 176.24 380.62 179.11 373.82C181.98 367.02 182.68 332.77 174.18 336.47C170.81 337.94 168.53 344.93 166.1 347.58C160.99 353.12 153.02 358.19 145.88 360.63C133.19 364.97 121.84 361.78 109.47 358.39C97.25 355.05 93.23 346.75 92.62 334.91C81.59 334.03 71.1 337.08 66.63 323.56C64.3 316.52 64.78 308.2 63.55 300.92C55.8 298.11 62.17 287.33 52.14 290.95C36.71 296.52 31.66 315.78 32.43 331.1C34.63 375.13 78.55 412.42 122.4 407.64C129.49 406.87 140.6 403.77 145.89 397.88V397.9Z" fill="black"/>
</g>
</g>
<path d="M46.98 266.87L44.06 286.89C43.77 288.87 43.5 290.97 44.29 292.81C45.6 295.84 49.19 296.98 52.28 298.12C67.58 303.71 79.7 317.29 83.53 333.13C86.49 345.39 85.27 359.77 94.05 368.83C100.93 375.94 111.75 377.2 121.64 377.48C131.75 377.77 141.9 377.46 151.89 375.92C155.91 375.3 160.01 374.43 163.4 372.2C171.88 366.61 173.1 354.98 174.97 345C178.03 328.73 185.06 313.22 195.27 300.19C198.73 295.78 202.63 291.49 204.33 286.16C205.24 283.31 205.47 280.29 205.54 277.3C205.79 266.55 203.97 255.76 200.22 245.68C158.69 270.32 106.94 277.09 60.47 263.95C57.37 263.07 54.15 262.1 50.97 262.64C47.79 263.18 44.69 265.79 46.96 266.86L46.98 266.87Z" stroke="white" stroke-width="3" stroke-miterlimit="10"/>
<path d="M138.74 304.76C131.59 304.76 125.8 298.97 125.8 291.82C125.8 290.25 126.09 288.76 126.6 287.37C122.62 289.58 119.93 293.82 119.93 298.69C119.93 305.84 125.72 311.63 132.87 311.63C138.45 311.63 143.19 308.09 145.01 303.14C143.15 304.17 141.02 304.76 138.74 304.76Z" fill="#FFFACA"/>
<path d="M169.42 302.01C169.42 291.34 170.3 277.08 160.56 269.82C157.94 267.87 154.27 265.39 151.35 264.1" stroke="white" stroke-width="5" stroke-miterlimit="10" stroke-linecap="round"/>
<path d="M91.1 315.12C91.13 301.25 91.66 287.95 99.17 275.83C100.62 273.49 103.12 267.98 106.34 267.63" stroke="white" stroke-width="5" stroke-miterlimit="10" stroke-linecap="round"/>
<path d="M27.19 378.98C26.63 354.84 31.71 330.58 41.92 308.69C45.44 301.15 50.65 293.08 58.86 291.79C66.79 290.55 74.04 296.17 79.72 301.83C91.96 314.02 102.84 329.78 101.59 347C100.63 360.19 92.74 371.73 84.84 382.33C82.51 385.45 80.11 388.61 76.96 390.9C73.05 393.74 68.24 395.07 63.48 395.93C55.62 397.34 47.26 397.58 39.93 394.42C32.6 391.26 27.31 384.12 27.19 378.97V378.98Z" fill="#F9E4D2"/>
<path d="M174.28 387.91C154 366.44 150.2 331.19 165.43 305.88C170.15 298.04 176.38 291.25 182.56 284.51C183.92 283.03 185.35 281.5 187.23 280.82C188.77 280.26 190.48 280.32 192.1 280.56C206.97 282.76 216.02 298.37 219.33 313.03C222.11 325.33 222.44 338.03 222.77 350.64C222.94 357.1 223.09 363.67 221.36 369.9C217.51 383.77 203.55 394.13 189.16 393.81C183.31 393.68 177.35 391.17 174.27 387.91H174.28Z" fill="#F9E4D2"/>
<path d="M76.28 450.77C61.08 441.01 48.2 427.67 38.97 412.15C35.49 406.3 32.47 399.91 32.25 393.11C32.03 386.31 35.2 379.03 41.34 376.11C46.77 373.53 53.16 374.76 59.04 376.03C65.96 377.53 72.88 379.04 79.79 380.54C84.13 381.48 88.54 382.45 92.44 384.59C102.34 390.02 106.89 401.7 109.46 412.7C111.22 420.24 112.42 427.9 113.44 435.58C114.28 441.88 114.88 448.75 111.57 454.17C107.85 460.27 99.81 462.81 92.79 461.48C85.77 460.15 81.25 453.97 76.28 450.77Z" fill="#F9E4D2"/>
<mask id="mask2_5_87" style="mask-type:luminance" maskUnits="userSpaceOnUse" x="32" y="374" width="83" height="88">
<path d="M76.28 450.77C61.08 441.01 48.2 427.67 38.97 412.15C35.49 406.3 32.47 399.91 32.25 393.11C32.03 386.31 35.2 379.03 41.34 376.11C46.77 373.53 53.16 374.76 59.04 376.03C65.96 377.53 72.88 379.04 79.79 380.54C84.13 381.48 88.54 382.45 92.44 384.59C102.34 390.02 106.89 401.7 109.46 412.7C111.22 420.24 112.42 427.9 113.44 435.58C114.28 441.88 114.88 448.75 111.57 454.17C107.85 460.27 99.81 462.81 92.79 461.48C85.77 460.15 81.25 453.97 76.28 450.77Z" fill="white"/>
</mask>
<g mask="url(#mask2_5_87)">
<g filter="url(#filter0_d_5_87)">
<path d="M72.72 393.69C70.41 398.71 65.07 401.94 59.57 402.56C54.08 403.19 48.52 401.48 43.73 398.72C38.97 395.97 34.66 391.93 33.03 386.67C32.23 384.08 32.11 381.33 32.34 378.63C32.71 374.21 33.99 369.87 36.07 365.96C37.1 364.03 38.33 362.19 39.98 360.75C42.28 358.74 45.26 357.63 48.26 357.1C55.99 355.73 64.3 358.1 70.15 363.34C76 368.58 79.26 376.58 78.75 384.42C78.66 385.76 78.46 387.13 77.83 388.31C76.42 390.97 73.34 392.33 72.72 393.68V393.69Z" fill="url(#paint0_radial_5_87)"/>
</g>
</g>
<path d="M143.45 459.14C144.99 439.03 147.87 419.02 152.05 399.29C153.04 394.61 154.21 389.73 157.35 386.13C159.97 383.12 163.67 381.33 167.27 379.61C175.54 375.66 184.47 371.61 193.52 373.04C201.85 374.35 208.75 380.11 214.66 386.13C216.58 388.09 218.51 390.21 219.23 392.85C220.33 396.91 218.34 401.11 216.3 404.79C205.95 423.46 192.85 440.6 177.56 455.49C170.01 462.84 159.59 470.13 149.74 466.36C145.86 464.87 143.28 461.34 143.45 459.13V459.14Z" fill="#F9E4D2"/>
<path d="M104.03 474.06C96.09 475.19 88.61 478.64 80.64 479.6C72.67 480.56 63.34 478.11 59.89 470.87C58.56 468.08 58.42 464.38 60.63 462.21C61.28 461.58 62.13 461.07 62.45 460.22C63.18 458.3 60.86 455.78 62.3 454.32C62.69 453.92 63.27 453.76 63.82 453.64C65.88 453.18 68 452.95 70.11 452.95C69.69 450.88 69.26 448.73 69.78 446.68C70.3 444.63 72.07 442.74 74.18 442.82C74.95 442.85 75.71 443.13 76.47 443.06C77.96 442.93 79 441.58 80.15 440.62C84.66 436.86 91.52 438.87 96.62 441.77C102.12 444.9 107.39 449.22 109.46 455.21C111.53 461.2 109.2 469 104 474.06H104.03Z" fill="#F9E4D2"/>
<path d="M146.67 473.77C141.56 473.94 138.2 467.72 139.26 462.72C140.32 457.72 144.22 453.89 147.93 450.38C153.05 445.54 158.43 440.54 165.17 438.48C166.65 438.03 168.31 437.73 169.72 438.38C172.13 439.49 172.91 442.89 175.41 443.78C179.21 445.13 183.87 439.71 186.84 442.44C189.24 444.65 186.93 449.77 189.78 451.36C190.7 451.87 191.86 451.76 192.81 452.22C195.36 453.44 194.46 457.51 192.28 459.32C190.1 461.13 187.13 461.96 185.37 464.18C184.4 465.4 183.89 466.94 182.91 468.15C180.79 470.75 177.06 471.21 173.71 471.48C164.96 472.18 156.25 473.47 146.67 473.79V473.77Z" fill="#F9E4D2"/>
<path d="M191.32 110.83C224.91 38.28 146.33 3.42001 85.9 23.3C48.74 33.67 46.38 69.16 47.69 100.97C44.91 112.88 35.77 125.52 42.12 135.98C71.61 162.23 116.07 169.85 154.68 167.81C192.8 171.13 233.95 121.62 191.32 110.83Z" fill="#F9E4D2"/>
<g filter="url(#filter1_d_5_87)">
<path d="M154.07 125.53C156.04 119.88 158.03 114.08 157.98 108.1C157.93 102.12 155.45 95.79 150.3 92.74C138.62 85.82 124.5 99.25 111.01 97.77C106.07 97.23 101.17 94.65 96.35 95.89C89.89 97.55 86.98 105.2 86.81 111.86C86.6 119.93 89.14 128.34 94.99 133.91C100.84 139.48 110.28 141.5 117.31 137.54C119.61 136.24 121.61 134.38 124.09 133.45C128.51 131.81 133.36 133.47 138.02 134.16C142.68 134.85 150.76 135.01 154.07 125.52V125.53Z" fill="#FFFACA"/>
<path d="M154.07 125.53C156.04 119.88 158.03 114.08 157.98 108.1C157.93 102.12 155.45 95.79 150.3 92.74C138.62 85.82 124.5 99.25 111.01 97.77C106.07 97.23 101.17 94.65 96.35 95.89C89.89 97.55 86.98 105.2 86.81 111.86C86.6 119.93 89.14 128.34 94.99 133.91C100.84 139.48 110.28 141.5 117.31 137.54C119.61 136.24 121.61 134.38 124.09 133.45C128.51 131.81 133.36 133.47 138.02 134.16C142.68 134.85 150.76 135.01 154.07 125.52V125.53Z" stroke="#F7C89C" stroke-width="2" stroke-miterlimit="10"/>
</g>
<path d="M133.76 120.81C136.63 117.26 139.62 113.4 139.93 108.85C140.21 104.6 137.96 100.43 134.68 97.72C131.4 95.01 127.19 93.61 122.97 93.01C118.98 92.44 114.79 92.57 111.08 94.14C104.84 96.8 100.75 103.69 101.22 110.45C101.69 117.21 106.58 123.4 112.98 125.61C119.38 127.82 128.36 127.48 133.76 120.8V120.81Z" fill="#F7C89C"/>
<path d="M95.37 72.16C94.58 71.97 93.79 71.82 92.99 71.67C87.45 69.41 81.44 68.21 75.47 68.2C73.4 68.2 70.9 68.62 70.29 70.43C71.14 71.19 72.17 71.56 73.28 71.74C72.43 71.91 71.58 72.09 70.73 72.3C68.31 72.91 65.49 74.2 65.26 76.68C68.72 78.71 72.98 76.37 76.93 75.64C82.72 74.57 88.67 77.13 94.51 76.37C95.63 76.22 96.87 75.86 97.41 74.87C97.96 73.88 97.05 72.57 95.35 72.17L95.37 72.16Z" fill="#441D1D"/>
<path d="M173.68 79.71C172.59 79.3 171.49 78.92 170.38 78.56C170.7 78.48 171.02 78.38 171.34 78.23C171.25 76.32 168.98 75.21 166.99 74.63C160.4 72.72 153.33 72.29 146.56 73.4C145.89 73.51 145.36 73.78 145.02 74.12C144.96 74.12 144.91 74.12 144.85 74.12C144.86 74.17 144.88 74.22 144.89 74.28C144.62 74.63 144.55 75.02 144.73 75.38C144.96 75.82 145.4 76.11 145.89 76.32C147.34 78.12 149.93 79.13 152.33 79.43C155.58 79.84 159 79.49 162 80.81C163.94 81.67 165.53 83.16 167.41 84.15C169.29 85.14 171.76 85.55 173.42 84.23C175.08 82.91 174.65 79.53 173.67 79.72L173.68 79.71Z" fill="#441D1D"/>
<path d="M112.06 20.48C107.71 15.67 101.23 11.5 93.41 8.47001C95.01 7.55001 97.58 7.39001 99.75 7.75001C101.92 8.11001 103.79 8.90001 105.57 9.70001C108.97 11.24 112.25 12.87 115.39 14.59C116.95 9.69001 115.74 4.51001 112 0.0200057C117.45 -0.279994 122.57 1.92001 125.23 4.67001C127.89 7.42001 128.62 10.64 129.3 13.76C131.73 13.09 134.15 12.41 136.58 11.74C138.53 11.2 141.28 10.76 142.51 11.79C143.6 12.7 142.34 13.97 140.73 14.58C139.12 15.19 137.15 15.5 135.86 16.32C132.96 18.15 134.45 21.86 130.47 22.8C128.34 23.31 125.86 22.55 124.42 21.51C123.93 21.16 123.45 20.75 122.69 20.63C121.22 20.39 120.11 21.35 118.91 21.9C116.33 23.1 111.74 22.02 112.06 20.48Z" fill="#AD6B66"/>
<g filter="url(#filter2_d_5_87)">
<path d="M109.55 110.83C103.57 113.93 100.56 124.07 106.34 129.14C109.92 132.28 117.25 133.13 121.75 132.9C128.32 132.56 138.34 123.33 136.86 116.07C136.21 112.89 131 108.14 127.56 108.5" stroke="#CCCCCC" stroke-width="5" stroke-miterlimit="10" stroke-linecap="round"/>
</g>
<g filter="url(#filter3_d_5_87)">
<path d="M201.12 397.08C195.79 401.91 187.16 401.95 181.02 398.19C174.88 394.43 171.13 387.55 169.86 380.46C169.21 376.81 169.18 372.92 170.74 369.56C172.6 365.58 176.41 362.91 180.25 360.78C183.82 358.8 187.79 357.09 191.85 357.52C195.25 357.88 198.3 359.71 201.22 361.49C203.59 362.93 206.01 364.43 207.7 366.62C209.42 368.84 210.26 371.6 210.94 374.32C212.08 378.89 212.86 383.76 211.48 388.27C210.1 392.78 205.97 396.74 201.11 397.08H201.12Z" fill="url(#paint1_radial_5_87)"/>
</g>
<g filter="url(#filter4_d_5_87)">
<path d="M72.72 396.92C70.41 401.94 65.07 405.17 59.57 405.79C54.08 406.42 48.52 404.71 43.73 401.95C38.97 399.2 34.66 395.16 33.03 389.9C32.23 387.31 32.11 384.56 32.34 381.86C32.71 377.44 33.99 373.1 36.07 369.19C37.1 367.26 38.33 365.42 39.98 363.98C42.28 361.97 45.26 360.86 48.26 360.33C55.99 358.96 64.3 361.33 70.15 366.57C76 371.81 79.26 379.81 78.75 387.65C78.66 388.99 78.46 390.36 77.83 391.54C76.42 394.2 73.34 395.56 72.72 396.91V396.92Z" fill="url(#paint2_radial_5_87)"/>
</g>
</g>
<defs>
<filter id="filter0_d_5_87" x="32.2363" y="356.718" width="46.5659" height="48.9725" filterUnits="userSpaceOnUse" color-interpolation-filters="sRGB">
<feFlood flood-opacity="0" result="BackgroundImageFix"/>
<feColorMatrix in="SourceAlpha" type="matrix" values="0 0 0 0 0 0 0 0 0 0 0 0 0 0 0 0 0 0 127 0" result="hardAlpha"/>
<feOffset dy="3"/>
<feColorMatrix type="matrix" values="0 0 0 0 0 0 0 0 0 0 0 0 0 0 0 0 0 0 0.75 0"/>
<feBlend mode="normal" in2="BackgroundImageFix" result="effect1_dropShadow_5_87"/>
<feBlend mode="normal" in="SourceGraphic" in2="effect1_dropShadow_5_87" result="shape"/>
</filter>
<filter id="filter1_d_5_87" x="85.798" y="89.7461" width="73.1829" height="53.8607" filterUnits="userSpaceOnUse" color-interpolation-filters="sRGB">
<feFlood flood-opacity="0" result="BackgroundImageFix"/>
<feColorMatrix in="SourceAlpha" type="matrix" values="0 0 0 0 0 0 0 0 0 0 0 0 0 0 0 0 0 0 127 0" result="hardAlpha"/>
<feOffset dy="3"/>
<feColorMatrix type="matrix" values="0 0 0 0 0 0 0 0 0 0 0 0 0 0 0 0 0 0 0.75 0"/>
<feBlend mode="overlay" in2="BackgroundImageFix" result="effect1_dropShadow_5_87"/>
<feBlend mode="normal" in="SourceGraphic" in2="effect1_dropShadow_5_87" result="shape"/>
</filter>
<filter id="filter2_d_5_87" x="100.741" y="105.981" width="38.768" height="32.4547" filterUnits="userSpaceOnUse" color-interpolation-filters="sRGB">
<feFlood flood-opacity="0" result="BackgroundImageFix"/>
<feColorMatrix in="SourceAlpha" type="matrix" values="0 0 0 0 0 0 0 0 0 0 0 0 0 0 0 0 0 0 127 0" result="hardAlpha"/>
<feOffset dy="3"/>
<feColorMatrix type="matrix" values="0 0 0 0 0 0 0 0 0 0 0 0 0 0 0 0 0 0 0.75 0"/>
<feBlend mode="overlay" in2="BackgroundImageFix" result="effect1_dropShadow_5_87"/>
<feBlend mode="normal" in="SourceGraphic" in2="effect1_dropShadow_5_87" result="shape"/>
</filter>
<filter id="filter3_d_5_87" x="169.44" y="357.453" width="42.7766" height="46.4175" filterUnits="userSpaceOnUse" color-interpolation-filters="sRGB">
<feFlood flood-opacity="0" result="BackgroundImageFix"/>
<feColorMatrix in="SourceAlpha" type="matrix" values="0 0 0 0 0 0 0 0 0 0 0 0 0 0 0 0 0 0 127 0" result="hardAlpha"/>
<feOffset dy="3"/>
<feColorMatrix type="matrix" values="0 0 0 0 0 0 0 0 0 0 0 0 0 0 0 0 0 0 0.75 0"/>
<feBlend mode="overlay" in2="BackgroundImageFix" result="effect1_dropShadow_5_87"/>
<feBlend mode="normal" in="SourceGraphic" in2="effect1_dropShadow_5_87" result="shape"/>
</filter>
<filter id="filter4_d_5_87" x="32.2363" y="359.948" width="46.5659" height="48.9725" filterUnits="userSpaceOnUse" color-interpolation-filters="sRGB">
<feFlood flood-opacity="0" result="BackgroundImageFix"/>
<feColorMatrix in="SourceAlpha" type="matrix" values="0 0 0 0 0 0 0 0 0 0 0 0 0 0 0 0 0 0 127 0" result="hardAlpha"/>
<feOffset dy="3"/>
<feColorMatrix type="matrix" values="0 0 0 0 0 0 0 0 0 0 0 0 0 0 0 0 0 0 0.75 0"/>
<feBlend mode="overlay" in2="BackgroundImageFix" result="effect1_dropShadow_5_87"/>
<feBlend mode="normal" in="SourceGraphic" in2="effect1_dropShadow_5_87" result="shape"/>
</filter>
<radialGradient id="paint0_radial_5_87" cx="0" cy="0" r="1" gradientUnits="userSpaceOnUse" gradientTransform="translate(55.52 379.71) scale(23.13 23.13)">
<stop stop-color="#F9BCAC"/>
<stop offset="1" stop-color="#F9E4D2"/>
</radialGradient>
<radialGradient id="paint1_radial_5_87" cx="0" cy="0" r="1" gradientUnits="userSpaceOnUse" gradientTransform="translate(190.84 379.16) scale(21.55 21.55)">
<stop stop-color="#F9BCAC"/>
<stop offset="1" stop-color="#F9E4D2"/>
</radialGradient>
<radialGradient id="paint2_radial_5_87" cx="0" cy="0" r="1" gradientUnits="userSpaceOnUse" gradientTransform="translate(55.52 382.94) scale(23.13 23.13)">
<stop stop-color="#F9BCAC"/>
<stop offset="1" stop-color="#F9E4D2"/>
</radialGradient>
<clipPath id="clip0_5_87">
<rect width="250.81" height="479.8" fill="white"/>
</clipPath>
</defs>
</svg>
